<svg width="6" height="10" viewBox="0 0 6 10" fill="none" xmlns="http://www.w3.org/2000/svg">
<path d="M5.02155 9.10073C5.14266 9.10298 5.26148 9.06752 5.36155 8.99928C5.46163 8.93103 5.53802 8.83337 5.58015 8.7198C5.62228 8.60623 5.62808 8.48238 5.59673 8.36538C5.56538 8.24837 5.49844 8.144 5.40517 8.06671L1.83572 5.01097L5.40738 1.95522C5.47263 1.90765 5.52731 1.84707 5.56797 1.77731C5.60864 1.70755 5.6344 1.63012 5.64363 1.5499C5.65286 1.46968 5.64537 1.38842 5.62161 1.31124C5.59786 1.23407 5.55837 1.16265 5.50563 1.10151C5.45289 1.04036 5.38805 0.990808 5.3152 0.955981C5.24235 0.921154 5.16307 0.901807 5.08237 0.899159C5.00166 0.896511 4.92128 0.910621 4.84631 0.940598C4.77133 0.970575 4.70338 1.01577 4.64675 1.07333L0.563598 4.56341C0.499384 4.61826 0.447824 4.68637 0.412469 4.76307C0.377115 4.83976 0.358807 4.92321 0.358807 5.00766C0.358807 5.09211 0.377115 5.17556 0.412469 5.25225C0.447824 5.32894 0.499384 5.39706 0.563598 5.45191L4.64675 8.95301C4.75022 9.04513 4.88305 9.09748 5.02155 9.10073Z" fill="#3b9cde"/>
</svg>
